<svg id="svg" version="1.1" xmlns="http://www.w3.org/2000/svg" xmlns:xlink="http://www.w3.org/1999/xlink" width="400" height="400" viewBox="0, 0, 400,400"><g id="svgg"><path id="path0" d="M188.600 66.959 C 184.499 67.793,181.161 68.727,176.800 70.261 C 173.903 71.280,169.743 72.628,164.600 74.215 C 157.241 76.486,151.995 80.343,149.799 85.099 C 149.418 85.925,147.968 88.940,146.578 91.800 C 145.188 94.660,143.848 97.810,143.600 98.800 C 143.351 99.790,142.821 101.500,142.422 102.600 C 142.022 103.700,141.569 105.410,141.414 106.400 C 141.259 107.390,140.802 110.000,140.400 112.200 C 139.038 119.640,138.735 124.155,139.183 130.287 C 139.571 135.605,139.546 136.107,138.791 138.022 C 136.817 143.032,136.942 150.875,139.220 164.800 C 139.886 168.870,140.713 174.000,141.057 176.200 C 141.401 178.400,142.114 181.528,142.642 183.151 C 143.169 184.774,143.600 186.530,143.600 187.053 C 143.600 187.576,144.697 190.928,146.039 194.502 C 149.342 203.303,149.312 202.501,146.464 205.988 C 141.969 211.489,140.076 222.852,142.497 229.800 C 142.880 230.900,143.392 232.880,143.635 234.200 C 145.394 243.775,157.611 263.711,163.200 266.128 C 165.321 267.046,166.467 268.156,167.589 270.378 C 168.943 273.060,170.521 274.038,172.237 273.256 C 174.605 272.177,177.318 272.883,180.876 275.504 C 183.331 277.312,185.069 278.277,189.079 280.056 C 193.072 281.828,193.132 282.020,192.081 289.764 C 191.440 294.484,190.922 296.729,189.824 299.537 C 188.355 303.297,188.122 304.734,188.782 305.966 C 188.992 306.359,189.809 309.632,190.597 313.240 C 192.228 320.710,192.758 321.746,195.040 321.918 C 198.695 322.194,198.779 321.707,198.790 300.108 L 198.800 282.415 199.836 282.155 C 202.882 281.391,203.333 286.087,203.085 316.000 C 202.948 332.654,202.187 346.592,200.716 359.400 C 199.629 368.862,201.323 372.381,205.267 368.856 L 206.600 367.665 206.471 357.933 C 206.384 351.332,206.543 346.011,206.965 341.400 C 208.238 327.491,208.532 320.126,208.565 301.334 C 208.584 290.737,208.720 281.947,208.867 281.800 C 209.014 281.653,209.202 290.412,209.285 301.266 C 209.447 322.453,209.474 322.719,211.528 323.570 C 215.956 325.404,217.196 321.359,215.573 310.370 C 214.345 302.052,214.183 286.269,215.303 283.933 C 215.690 283.126,216.111 281.596,216.240 280.533 C 216.690 276.805,217.009 276.288,220.105 274.287 C 227.085 269.775,231.817 265.847,234.884 262.019 C 236.215 260.359,237.551 258.856,237.852 258.680 C 238.153 258.504,238.400 258.126,238.400 257.841 C 238.400 257.555,239.674 255.899,241.231 254.161 C 242.789 252.422,244.316 250.427,244.625 249.727 C 244.935 249.027,245.378 248.337,245.610 248.194 C 246.351 247.736,249.906 242.111,250.969 239.714 C 254.982 230.663,256.152 217.040,253.590 209.197 C 252.284 205.200,252.088 199.607,253.133 196.156 C 253.592 194.640,254.464 190.520,255.071 187.000 L 256.175 180.600 256.185 155.600 C 256.200 120.290,255.933 118.346,248.211 97.400 C 247.622 95.802,247.008 92.969,246.781 90.800 C 245.794 81.381,241.745 77.788,229.661 75.609 C 228.265 75.357,226.645 74.962,226.061 74.731 C 222.513 73.328,213.343 70.202,210.800 69.529 C 209.150 69.093,206.028 68.120,203.861 67.368 C 199.037 65.692,195.317 65.593,188.600 66.959 M141.596 111.088 C 141.164 111.762,141.152 111.761,141.370 111.067 C 141.496 110.664,141.625 109.944,141.654 109.467 C 141.709 108.601,141.709 108.601,141.881 109.488 C 141.975 109.977,141.847 110.697,141.596 111.088 M242.536 139.175 C 249.027 141.643,246.445 154.813,239.071 156.845 C 236.712 157.496,227.636 157.535,226.526 156.900 C 226.046 156.625,224.336 156.125,222.726 155.789 C 219.613 155.140,214.400 152.075,214.400 150.895 C 214.400 149.971,216.669 148.114,218.712 147.367 C 222.225 146.083,226.187 144.369,229.200 142.830 C 230.850 141.988,233.460 140.918,235.000 140.453 C 236.540 139.988,238.070 139.429,238.400 139.210 C 239.161 138.705,241.253 138.688,242.536 139.175 M172.000 142.186 C 174.358 142.547,177.014 143.288,179.000 144.139 C 180.760 144.893,183.730 146.164,185.600 146.963 C 193.583 150.374,193.694 150.654,188.118 153.313 C 179.833 157.263,175.522 157.816,166.939 156.029 C 157.218 154.005,154.941 151.468,156.809 144.742 C 157.636 141.766,163.169 140.835,172.000 142.186 M252.821 191.420 C 252.627 192.069,252.453 192.300,252.434 191.933 C 252.396 191.188,252.823 189.890,253.036 190.103 C 253.112 190.178,253.015 190.771,252.821 191.420 M213.265 193.600 C 214.439 193.816,216.480 194.435,217.800 194.975 C 219.120 195.516,220.926 196.144,221.812 196.371 C 226.712 197.625,225.293 200.195,219.159 201.175 C 217.724 201.404,215.540 201.939,214.305 202.364 C 213.070 202.789,210.021 203.331,207.529 203.570 C 205.038 203.808,201.456 204.212,199.570 204.468 C 191.959 205.500,182.872 201.253,185.121 197.715 C 185.577 196.997,191.281 194.780,195.400 193.720 C 199.253 192.728,208.199 192.668,213.265 193.600 M252.613 229.856 C 251.985 230.946,251.964 230.953,252.172 230.000 C 252.291 229.450,252.392 228.739,252.395 228.420 C 252.398 228.001,252.521 227.961,252.836 228.276 C 253.150 228.590,253.088 229.030,252.613 229.856 " stroke="none" fill="#faf7f7" fill-rule="evenodd"></path><path id="path1" d="M21.000 0.285 C 12.041 1.537,3.006 10.189,0.600 19.818 C 0.065 21.961,0.007 42.648,0.098 201.018 L 0.200 379.800 1.457 383.058 C 4.449 390.815,9.858 395.986,18.200 399.062 C 21.019 400.102,376.047 400.433,380.182 399.400 C 388.751 397.259,395.568 390.986,398.728 382.334 L 399.800 379.400 399.902 200.526 L 400.004 21.652 398.856 18.234 C 396.123 10.101,390.381 4.153,382.376 1.162 L 379.800 0.200 201.000 0.158 C 102.660 0.136,21.660 0.192,21.000 0.285 M203.861 67.368 C 206.028 68.120,209.150 69.093,210.800 69.529 C 213.343 70.202,222.513 73.328,226.061 74.731 C 226.645 74.962,228.265 75.357,229.661 75.609 C 241.745 77.788,245.794 81.381,246.781 90.800 C 247.008 92.969,247.622 95.802,248.211 97.400 C 255.933 118.346,256.200 120.290,256.185 155.600 L 256.175 180.600 255.071 187.000 C 254.464 190.520,253.592 194.640,253.133 196.156 C 252.088 199.607,252.284 205.200,253.590 209.197 C 256.152 217.040,254.982 230.663,250.969 239.714 C 249.906 242.111,246.351 247.736,245.610 248.194 C 245.378 248.337,244.935 249.027,244.625 249.727 C 244.316 250.427,242.789 252.422,241.231 254.161 C 239.674 255.899,238.400 257.555,238.400 257.841 C 238.400 258.126,238.153 258.504,237.852 258.680 C 237.551 258.856,236.215 260.359,234.884 262.019 C 231.817 265.847,227.085 269.775,220.105 274.287 C 217.009 276.288,216.690 276.805,216.240 280.533 C 216.111 281.596,215.690 283.126,215.303 283.933 C 214.183 286.269,214.345 302.052,215.573 310.370 C 217.196 321.359,215.956 325.404,211.528 323.570 C 209.474 322.719,209.447 322.453,209.285 301.266 C 209.202 290.412,209.014 281.653,208.867 281.800 C 208.720 281.947,208.584 290.737,208.565 301.334 C 208.532 320.126,208.238 327.491,206.965 341.400 C 206.543 346.011,206.384 351.332,206.471 357.933 L 206.600 367.665 205.267 368.856 C 201.323 372.381,199.629 368.862,200.716 359.400 C 202.187 346.592,202.948 332.654,203.085 316.000 C 203.333 286.087,202.882 281.391,199.836 282.155 L 198.800 282.415 198.790 300.108 C 198.779 321.707,198.695 322.194,195.040 321.918 C 192.758 321.746,192.228 320.710,190.597 313.240 C 189.809 309.632,188.992 306.359,188.782 305.966 C 188.122 304.734,188.355 303.297,189.824 299.537 C 190.922 296.729,191.440 294.484,192.081 289.764 C 193.132 282.020,193.072 281.828,189.079 280.056 C 185.069 278.277,183.331 277.312,180.876 275.504 C 177.318 272.883,174.605 272.177,172.237 273.256 C 170.521 274.038,168.943 273.060,167.589 270.378 C 166.467 268.156,165.321 267.046,163.200 266.128 C 157.611 263.711,145.394 243.775,143.635 234.200 C 143.392 232.880,142.880 230.900,142.497 229.800 C 140.076 222.852,141.969 211.489,146.464 205.988 C 149.312 202.501,149.342 203.303,146.039 194.502 C 144.697 190.928,143.600 187.576,143.600 187.053 C 143.600 186.530,143.169 184.774,142.642 183.151 C 142.114 181.528,141.401 178.400,141.057 176.200 C 140.713 174.000,139.886 168.870,139.220 164.800 C 136.942 150.875,136.817 143.032,138.791 138.022 C 139.546 136.107,139.571 135.605,139.183 130.287 C 138.735 124.155,139.038 119.640,140.400 112.200 C 140.802 110.000,141.259 107.390,141.414 106.400 C 141.569 105.410,142.022 103.700,142.422 102.600 C 142.821 101.500,143.351 99.790,143.600 98.800 C 143.848 97.810,145.188 94.660,146.578 91.800 C 147.968 88.940,149.418 85.925,149.799 85.099 C 151.995 80.343,157.241 76.486,164.600 74.215 C 169.743 72.628,173.903 71.280,176.800 70.261 C 189.323 65.857,197.113 65.024,203.861 67.368 M141.654 109.467 C 141.625 109.944,141.496 110.664,141.370 111.067 C 141.152 111.761,141.164 111.762,141.596 111.088 C 141.847 110.697,141.975 109.977,141.881 109.488 C 141.709 108.601,141.709 108.601,141.654 109.467 M238.400 139.210 C 238.070 139.429,236.540 139.988,235.000 140.453 C 233.460 140.918,230.850 141.988,229.200 142.830 C 226.187 144.369,222.225 146.083,218.712 147.367 C 216.669 148.114,214.400 149.971,214.400 150.895 C 214.400 152.075,219.613 155.140,222.726 155.789 C 224.336 156.125,226.046 156.625,226.526 156.900 C 227.636 157.535,236.712 157.496,239.071 156.845 C 245.298 155.129,248.606 144.955,244.393 140.475 C 242.917 138.907,239.838 138.256,238.400 139.210 M160.600 141.886 C 157.242 142.696,156.406 144.058,156.402 148.726 C 156.399 152.736,158.664 154.306,166.939 156.029 C 175.522 157.816,179.833 157.263,188.118 153.313 C 193.694 150.654,193.583 150.374,185.600 146.963 C 183.730 146.164,180.760 144.893,179.000 144.139 C 174.343 142.143,164.518 140.940,160.600 141.886 M252.649 190.615 C 252.512 190.973,252.415 191.566,252.434 191.933 C 252.453 192.300,252.627 192.069,252.821 191.420 C 253.198 190.158,253.065 189.533,252.649 190.615 M195.400 193.720 C 191.281 194.780,185.577 196.997,185.121 197.715 C 182.872 201.253,191.959 205.500,199.570 204.468 C 201.456 204.212,205.038 203.808,207.529 203.570 C 210.021 203.331,213.070 202.789,214.305 202.364 C 215.540 201.939,217.724 201.404,219.159 201.175 C 225.293 200.195,226.712 197.625,221.812 196.371 C 220.926 196.144,219.120 195.516,217.800 194.975 C 212.516 192.812,201.357 192.187,195.400 193.720 M252.395 228.420 C 252.392 228.739,252.291 229.450,252.172 230.000 C 251.964 230.953,251.985 230.946,252.613 229.856 C 253.088 229.030,253.150 228.590,252.836 228.276 C 252.521 227.961,252.398 228.001,252.395 228.420 " stroke="none" fill="#100F0F" fill-rule="evenodd"></path></g></svg>